<?xml version="1.0" encoding="utf-8"?>
<!-- Generator: Adobe Illustrator 22.1.0, SVG Export Plug-In . SVG Version: 6.00 Build 0)  -->
<svg version="1.1" id="Layer_1" xmlns="http://www.w3.org/2000/svg" xmlns:xlink="http://www.w3.org/1999/xlink" x="0px" y="0px"
	 viewBox="0 0 400 1000" style="enable-background:new 0 0 400 1000;" xml:space="preserve">
<style type="text/css">
	.st0{fill:#019988;stroke:#FFFFFF;stroke-width:4;stroke-linejoin:round;stroke-miterlimit:10;}
	.st1{fill:#019988;}
	.st2{fill:#FFFFFF;}
	.st3{fill:#019988;stroke:#FFFFFF;stroke-width:4;stroke-miterlimit:10;}
	.st4{fill:none;stroke:#FFFFFF;stroke-width:4;stroke-miterlimit:10;}
</style>
<g>
	<path class="st0" d="M279.8,184.7c-0.2,1.2-101.1-21-103.4-21c-2.1,0-40.2,32.1-41.3,27.4c-1.4-5.8-16-26.7-5.3-57.4
		c2.6-7.6,18.4-36.4,20.5-43.5c6-19.8-3.9-18-0.8-33.7C151,49,156,11.7,201.2,4.3c5.5-0.9,10.5,2.4,19.9,2
		C232,5.8,249.9,21.2,251.9,22c17.8,7,21.8,36.7,22.5,56c0.4,11.3-9.3,33.8-6.3,52C269.5,139.3,284.1,155.8,279.8,184.7z"/>
	<path class="st0" d="M189.7,77.7c0-6.5-5-12.1-4.8-17C185.8,39.4,193,32,214,32c9.5,0,12,4.8,18.7,8.3c8.2,4.3,17.9-4,21,24.1
		c0.3,2.6-1.2,7-1.2,9.7c0,0.8,2.5,7.1,2.5,9.9c0,16.3-10.7,43.8-19.8,49.2l-0.7,22.8l9.1,3.6l-10.8,76.7h-48.2l-10.3-77.8l10.5-2.7
		l-1.6-24.7c-0.2-5.6-6.1-21.3-6.4-26.9C176.3,92.4,189.7,88.3,189.7,77.7z"/>
	<g>
		<path class="st1" d="M324.2,586.3c-0.3,0-0.6,0-0.9,0c-9-0.9-15.2-16.1-14.9-36.3c-2.7-1.4-5.4-5-4.2-16.7
			c0.9-7.9,4-15.8,9.1-15.8c0.2,0,0.3,0,0.5,0c0.3,0,0.6,0.1,0.9,0.2c4-9.2,9.3-14.4,14.8-14.4c0.3,0,0.6,0,0.9,0
			c10.1,1.1,16.5,20.1,14.6,43.3C343.1,569.3,334.1,586.3,324.2,586.3z"/>
		<path class="st2" d="M329.5,505.3c0.2,0,0.5,0,0.7,0c8.9,0.9,14.6,19.4,12.8,41.2c-1.8,21.2-10.1,37.8-18.8,37.8
			c-0.2,0-0.5,0-0.7,0c-8.1-0.9-13.6-16.3-13.1-35.7c-1.2-0.5-5.8-1-4.2-15.1c0.9-7.9,3.8-14,7.1-14c0.1,0,0.2,0,0.3,0
			c0.7,0.1,1.4,0.5,2,1.1C319.3,511.2,324.3,505.3,329.5,505.3 M329.5,501.3c-6.1,0-11.7,5-16,14.2h-0.1c-6.8,0-10.2,9.5-11.1,17.6
			c-1,9.4,0.3,15.2,4.1,18c0,8.9,1.2,17.3,3.6,23.7c2.1,5.8,6.1,12.8,13.1,13.5c0.4,0,0.7,0.1,1.1,0.1c5.8,0,11.3-4.7,15.5-13.2
			c3.7-7.5,6.3-17.6,7.2-28.3c0.9-11,0-21.7-2.5-29.9c-2.9-9.4-7.8-14.9-13.8-15.6C330.3,501.3,329.9,501.3,329.5,501.3L329.5,501.3
			z"/>
	</g>
	<path class="st0" d="M327.7,216.5l-2.1-10.7c-0.6-3.1-6.3-8.3-15.7-12.8c-17.8-8.5-38.1-24.1-53.2-29.6c-4.7-1.7-11-3.6-17.6-5.5
		c0,0,3.3,65.3-25.4,65.3c-28.5,0-35.9-65.3-35.9-65.3c-2.8,0.7-8.2,0.7-16.7,2.9c-31.5,8.2-53.4,28.2-67,34.2
		c-1.9,0.8-13.9,3.5-17.3,14.8L73.4,222c78.3,56.1,249.4,171.7,249.4,106.2c0-46.7,5.8-66.8-0.7-93.9
		C329.9,231.9,320.9,221.4,327.7,216.5z"/>
	<path class="st3" d="M304.3,513.5c0,0,5,10.3,19.9,10.3c17.9,0,24.7-7.2,24.7-7.2s0.7-104.2,2.1-142
		c1.6-41.4-23.4-158.9-23.4-158.9l-46.1,13.6c0,0,21.2,107,20.1,147.3C300.4,415.4,304.3,513.5,304.3,513.5z"/>
	<g>
		<path class="st1" d="M97.3,991.9c-3.5,0-6.6-1.1-9.1-3.2c-9.6-8,7.3-38.7,12.7-47.9c4.1-7,8.2-14.2,11.8-20.5
			c6.2-10.9,9.2-16.3,10.4-17.5c4.9-5.3,21.5-9.1,33.2-9.1c5.6,0,12.9,0.8,16.5,4.6c1.5,1.6,2.3,3.7,2.1,5.9
			c-0.2,3.8-0.3,7.4-0.4,10.9c-0.3,9.9-0.5,17.7-3.5,23.1c-4.5,7.8-7.1,9.5-11.3,12.3c-2.9,1.9-6.6,4.3-12.6,9.7
			C129,976.7,110.5,991.9,97.3,991.9z"/>
		<path class="st2" d="M156.3,895.7c9.4,0,17,2.3,16.6,8.4c-0.9,14.5,0.2,26.4-3.7,33.1c-7.2,12.6-8.7,8-23.6,21.5
			c-20.1,18.2-36.9,31.1-48.4,31.1c-3,0-5.6-0.9-7.8-2.7c-6-5,0.8-24.3,13.1-45.4c10-17.1,20.1-35.8,21.9-37.7
			C128.6,899.7,144,895.7,156.3,895.7 M156.3,891.7L156.3,891.7c-12.4,0-29.4,3.9-34.7,9.7c-1.2,1.4-3.8,5.7-10.7,17.9
			c-3.6,6.3-7.7,13.5-11.8,20.5c-8.9,15.2-22.4,42.1-12.2,50.5c2.9,2.4,6.4,3.6,10.4,3.6c11.2,0,26-9.3,51.1-32.1
			c5.9-5.3,9.5-7.7,12.4-9.6c4.7-3.1,7.4-5.1,12-13c3.3-5.8,3.5-13.9,3.8-24c0.1-3.5,0.2-7,0.4-10.8c0.2-2.8-0.8-5.4-2.7-7.4
			C171,893.5,165,891.7,156.3,891.7L156.3,891.7z"/>
	</g>
	<polyline class="st1" points="286,302.2 96,234.7 136.8,396.3 116.8,497.8 288.7,497.8 	"/>
	<g>
		<path class="st1" d="M323.5,982.6c-15.2,0-36.1-10.4-54.7-27c-6.5-5.8-10.8-8-14.3-9.7c-4.5-2.2-8-4-12.2-11.5
			c-3.5-6.2-3.8-13.9-4.2-25.5c-0.1-1.8-0.1-3.7-0.2-5.8c-0.1-2.4,0.7-4.4,2.3-6.1c3.8-4,11.4-4.8,17.1-4.8
			c11.3,0,26.6,3.4,31.3,8.5c0.2,0.2,0.8,0.8,1.6,1.6c5,4.7,18.2,17.1,26.7,31.9c3.4,5.9,7,11.5,10.2,16.4
			c9.1,14,15.1,23.3,9.3,28.1C333.2,981.2,328.9,982.6,323.5,982.6L323.5,982.6z"/>
		<path class="st2" d="M257.3,894.2c11.8,0,25.9,3.6,29.8,7.9c1.8,1.9,18.2,16,28.1,33.1c12.1,21,26.1,36.8,19.9,41.9
			c-2.9,2.4-6.9,3.5-11.6,3.5c-13.9,0-34.5-9.6-53.3-26.5c-14.9-13.4-19-8.1-26.1-20.7c-3.8-6.7-3.5-15.7-4.1-30.3
			C239.6,896.6,247.7,894.2,257.3,894.2 M257.3,890.2c-8.9,0-15.1,1.8-18.5,5.4c-2,2.1-3,4.7-2.9,7.6c0.1,2,0.1,3.9,0.2,5.8
			c0.4,11.9,0.7,19.7,4.4,26.4c4.5,8,8.5,10,13.1,12.3c3.4,1.7,7.6,3.8,13.9,9.4c18.9,17,40.4,27.5,56,27.5c5.9,0,10.6-1.5,14.2-4.4
			c5.4-4.4,2.1-11.7,1-14.1c-2.1-4.6-5.7-10.2-9.9-16.6c-3.2-4.9-6.8-10.4-10.2-16.3c-8.7-15-22-27.6-27-32.3
			c-0.7-0.6-1.4-1.3-1.5-1.5C284.8,893.7,269,890.2,257.3,890.2L257.3,890.2z"/>
	</g>
	<g>
		<path class="st1" d="M264,911.2c-13.2,0-21.6-2.3-24.8-6.7c-1.6-2.2-1.4-4.3-1.2-5.2l-8.1-200.2l-5.4-60.2c0-0.1,0-0.1,0-0.2
			c0.1-18.3-7.5-68.2-9.1-78.1h-1.8c-2.3,8.6-14.3,53.3-16.3,79.4l-3.6,57l-18.1,202.2c0.2,0.9,0.3,2.9-1.2,5.1
			c-3.2,4.4-11.5,6.7-24.8,6.7c-12.6,0-21.2-2.2-25.4-6.5c-2.3-2.3-2.5-4.5-2.5-5.1l-13.7-208c-0.3-1.9-5.3-40.2-6.2-78.6
			c-0.3-14.4-2-29-3.5-41.8c-1.3-11.6-2.5-21.6-2.4-29c0.3-19.8,15.8-107.1,16.5-110.8c0.1-0.7,0.6-1.2,1.2-1.5
			c0.2-0.1,0.5-0.1,0.8-0.1c0.4,0,0.8,0.1,1.2,0.4c0.4,0.3,39.4,27.5,98.2,27.5c48.9,0,82.7-24.9,83-25.2c0.4-0.3,0.8-0.4,1.2-0.4
			c0.3,0,0.5,0.1,0.8,0.2c0.7,0.3,1.1,0.9,1.2,1.6c0.1,0.9,12.6,93.3,13.9,113.8c0.6,8.4-0.8,20.1-2.4,33.7
			c-1.5,13-3.3,27.7-3.5,42.1c-0.7,35.7-3.5,70-3.5,70.3l-12.6,206.2c0,0.6-0.3,2.8-2.5,5.1C285.2,909,276.6,911.2,264,911.2z"/>
		<path class="st2" d="M114.5,431.5c0,0,39.1,27.8,99.4,27.8c50.2,0,84.2-25.6,84.2-25.6s12.5,93,13.9,113.7
			c1.1,16.3-5.4,46.4-6,75.6c-0.7,36.1-3.5,70.2-3.5,70.2l-12.6,206.3c0,0,0.2,9.7-25.9,9.7c-27.3,0-24-9.7-24-9.7L231.9,699
			l-5.4-60.3c0.1-20.6-9.3-80.1-9.3-80.1l-5.1,0.1c0,0-14.5,51.9-16.7,81.2l-3.6,57.1l-18.1,202.5c0,0,3.3,9.7-24,9.7
			c-26.1,0-26-9.7-26-9.7L110,691.2c0,0-5.2-38.9-6.1-78.5c-0.6-27.5-6.1-55.3-5.9-70.7C98.3,522.1,114.5,431.5,114.5,431.5
			 M114.5,427.5c-0.5,0-1,0.1-1.5,0.3c-1.3,0.5-2.2,1.6-2.4,3c-0.7,3.7-16.2,91.1-16.5,111.1c-0.1,7.5,1.1,17.6,2.4,29.2
			c1.5,12.8,3.1,27.3,3.5,41.7c0.9,38.2,5.8,76.2,6.2,78.8l13.6,208.2c0,1,0.4,3.6,3.1,6.3c4.6,4.7,13.7,7.1,26.9,7.1
			c14.1,0,22.8-2.5,26.4-7.5c1.6-2.2,1.9-4.6,1.6-6.4l18-201.9v-0.1l3.6-57.1c1.7-22.6,11-59.5,14.9-74.1
			c2.4,16.1,8.3,56.7,8.3,72.7c0,0.1,0,0.2,0,0.4l5.4,60.2l8.1,199.8c-0.3,1.7,0,4.2,1.6,6.5c3.6,5.1,12.3,7.5,26.4,7.5
			c13.2,0,22.2-2.4,26.9-7.1c2.7-2.7,3-5.4,3.1-6.4l12.6-206.2c0.1-1.4,2.9-35.2,3.5-70.4c0.3-14.3,2-28.9,3.5-41.9
			c1.6-13.7,3-25.5,2.4-34c-1.4-20.5-13.4-110.1-14-113.9c-0.2-1.4-1.1-2.6-2.4-3.2c-0.5-0.2-1-0.3-1.5-0.3c-0.9,0-1.7,0.3-2.4,0.8
			c-0.3,0.2-33.6,24.8-81.8,24.8c-30.4,0-55.1-7.4-70.5-13.5c-16.8-6.7-26.4-13.5-26.5-13.6C116.1,427.8,115.3,427.5,114.5,427.5
			L114.5,427.5z"/>
	</g>
	<path class="st0" d="M190.7,512.4c-18.3,34.1-98,15.6-98,15.6s15.9-75.5,19.8-122.5c0.6-7.1,0.9-22.5,0.9-27.8
		c0-25.1-25.1-78.8-25.1-78.8l109.6,41.5C197.9,340.3,202.7,490,190.7,512.4z"/>
	<g>
		<path class="st1" d="M106.6,591.4c-9.6,0-20.1-15.3-25.1-36.3l-0.6-2.7c-3.7-15.7-7.3-30.6-1.5-38c2.3-2.9,5.9-4.4,10.7-4.4
			c5.7,0,11.2,3.5,15.9,10c1.4-1,2.8-1.6,4.1-1.6c5.5,0,7.5,8,9.2,15c0.2,0.8,0.4,1.7,0.6,2.4c3,11.3,0.8,15.3-1.7,17.1
			c3.2,20-0.7,35.9-9.4,38.1C108.1,591.3,107.4,591.4,106.6,591.4L106.6,591.4z"/>
		<path class="st2" d="M90.1,512c5.5,0,11.5,3.9,16.6,13c0.5-0.7-0.7-2.5-0.1-3c1.3-1.1,2.4-1.6,3.4-1.6c4.4,0,6.2,9.5,7.9,15.9
			c3.6,13.7-0.8,15-1.9,15.6c3.4,19,0.2,35.2-7.7,37.2c-0.6,0.1-1.1,0.2-1.7,0.2c-8.4,0-18.4-14.8-23.1-34.8
			C78.5,533.4,72.7,512,90.1,512 M90.1,508c-5.4,0-9.5,1.7-12.2,5.2c-6.4,8.1-2.8,23.4,1.1,39.7l0.6,2.7
			c2.4,10.1,6.2,19.3,10.7,26.2c5.1,7.6,10.7,11.7,16.3,11.7c0.9,0,1.8-0.1,2.7-0.3c6.9-1.8,9.8-9.3,11-15.3
			c1.4-6.7,1.4-15.1,0.1-24c3.4-3.3,3.9-9.3,1.5-18.4c-0.2-0.8-0.4-1.6-0.6-2.4c-1.8-7.4-4.1-16.5-11.2-16.5c-1.2,0-2.4,0.3-3.6,0.9
			C102.7,512.7,97.2,508,90.1,508L90.1,508z"/>
	</g>
	<g>
		<path class="st1" d="M96.9,530.8c-18.4,0-26.7-7.4-27.1-7.7l-0.4-0.4l-0.1-0.6c-1.1-4.5-26.6-110.9-28-148.4
			C39.7,332.4,71,230.5,72.4,226.2l0.4-1.4l58.9-0.6l-0.9,2.7C130.4,228,95.6,334,96.7,373.5c1.1,38.3,21.9,143.7,22.1,144.7
			l0.1,0.7l-0.3,0.6C118.3,519.9,112.8,530.8,96.9,530.8z"/>
		<path class="st2" d="M128.8,226.2c0,0-35.3,107-34.2,147.3c1.1,38.9,22.1,145.1,22.1,145.1s-5,10.3-19.9,10.3
			c-17.9,0-25.7-7.2-25.7-7.2s-26.5-110.3-28-148c-1.6-41.4,31-146.9,31-146.9L128.8,226.2 M134.4,222.1l-5.6,0.1l-54.7,0.6h-2.9
			l-0.9,2.8c-0.1,0.3-8.3,26.8-16.2,58.1c-10.6,42.2-15.7,72.5-15,90.1c1.5,37.7,27,144.2,28.1,148.8l0.3,1.2l0.9,0.8
			c3.3,3.1,13.1,8.2,28.4,8.2c17.2,0,23.3-12,23.5-12.5l0.6-1.2l-0.3-1.3c-0.2-1.1-20.9-106.3-22-144.4
			c-1.1-39.1,33.6-144.8,34-145.9L134.4,222.1L134.4,222.1z"/>
	</g>
	<polygon class="st1" points="190.3,247.5 126.7,273.3 103,270 74.2,226.8 76,220.3 161.9,217.9 190,258.9 	"/>
	<g>
		<path class="st4" d="M197.4,295.8"/>
	</g>
	<g>
		<path class="st4" d="M174.4,155"/>
	</g>
	<path class="st3" d="M244.6,512.4c30.1,33.5,73.4,23.6,75.3,10.4c1.5-10.2-25.8-122.2-25.8-122.2s-4-23.5-3.2-29.9
		c1.4-10.2,14.8-45.6,15.3-58.1c0.7-20.7-13.2-58.7-13.2-58.7l-61.9,87.9C231.1,341.7,227.6,493.5,244.6,512.4z"/>
	<polygon class="st1" points="196.2,365.3 107.5,316.4 111.2,300.5 115.9,284.1 195.4,311 196.9,341.9 	"/>
	<polygon class="st1" points="324.8,211.5 276.7,221.3 275.6,270.7 232.4,288.5 233.1,342.6 233.1,359.2 298,311.1 292.8,262.3 
		310,259.7 326.6,221.6 	"/>
	<path class="st0" d="M177.9,157.9l-16.7,2.9L143.8,194l54.1,146.3c0,0-11.6-99.9-15-118.5C179.8,205.4,177.9,157.9,177.9,157.9z"/>
	<path class="st0" d="M242.8,158.7l12.8,4.1l18.7,31l-43.2,147.9c-0.5,6,3.7-102.9,7.2-121.9C241.3,203.3,242.8,158.7,242.8,158.7z"
		/>
</g>
</svg>
