<?xml version="1.0" encoding="utf-8"?>
<!-- Generator: Adobe Illustrator 22.1.0, SVG Export Plug-In . SVG Version: 6.00 Build 0)  -->
<svg version="1.1" id="Layer_1" xmlns="http://www.w3.org/2000/svg" xmlns:xlink="http://www.w3.org/1999/xlink" x="0px" y="0px"
	 viewBox="0 0 400 1000" style="enable-background:new 0 0 400 1000;" xml:space="preserve">
<style type="text/css">
	.st0{fill:#ED8831;}
	.st1{fill:#FFFFFF;}
	.st2{fill:#ED8831;stroke:#FFFFFF;stroke-width:4;stroke-linejoin:round;stroke-miterlimit:10;}
	.st3{fill:none;stroke:#FFFFFF;stroke-width:4;stroke-miterlimit:10;}
	.st4{fill:#ED8831;stroke:#FFFFFF;stroke-width:4;stroke-miterlimit:10;}
</style>
<g>
	<g>
		<path class="st0" d="M85.7,594.3c-10.8,0-20.6-18.7-22.7-43.5c-2.2-25.5,4.8-46.3,15.8-47.5c0.3,0,0.7-0.1,1-0.1
			c6,0,11.8,5.7,16.2,15.8c0.4-0.1,0.7-0.2,1.1-0.2c0.2,0,0.3,0,0.5,0c5.5,0,8.9,8.7,9.8,17.2c1.4,12.9-1.6,16.8-4.6,18.2
			c0.3,22.2-6.4,38.9-16.2,39.9C86.4,594.2,86,594.3,85.7,594.3L85.7,594.3z"/>
		<path class="st1" d="M79.9,505.3c5.7,0,11.3,6.6,15.2,16.8c0.7-0.7,1.4-1.1,2.2-1.2c0.1,0,0.2,0,0.3,0c3.6,0,6.9,6.8,7.8,15.5
			c1.7,15.5-3.3,16.2-4.6,16.7c0.6,21.3-5.4,38.3-14.4,39.3c-0.3,0-0.5,0-0.8,0c-9.5,0-18.7-18.3-20.7-41.6
			c-2-24,4.3-44.3,14.1-45.3C79.3,505.3,79.6,505.3,79.9,505.3 M79.9,501.3L79.9,501.3c-0.4,0-0.8,0-1.2,0.1
			c-14.1,1.5-19.6,26.7-17.6,49.6c1,11.8,3.8,22.8,7.9,31c4.6,9.2,10.5,14.3,16.7,14.3c0.4,0,0.8,0,1.2-0.1
			c7.6-0.8,11.9-8.4,14.1-14.6c2.6-7.1,3.9-16.3,3.9-26.2c4.2-2.9,5.7-9.3,4.6-19.6c-1-8.8-4.7-19-11.8-19c-0.1,0-0.3,0-0.4,0
			C92.6,506.8,86.5,501.3,79.9,501.3L79.9,501.3z"/>
	</g>
	<g>
		<path class="st0" d="M86.6,525.8c-18.5,0-25.8-7.5-26.1-7.8l-0.5-0.6v-0.8c0-1-0.7-104.6-2.1-141.9c-1.6-41.1,9.9-158.1,10-159.3
			l0.2-2.3l63.6,14.6l-0.3,1.9c-0.2,1.1-19.2,107.2-18,146.9c1.1,38.5-4.7,136.2-4.7,137.2v0.4l-0.2,0.4
			C108.1,514.9,102.6,525.8,86.6,525.8z"/>
		<path class="st1" d="M69.8,215.6l59.5,13.7c0,0-19.2,107-18.1,147.3c1.1,38.9-4.7,137-4.7,137s-5,10.3-19.9,10.3
			c-17.9,0-24.7-7.2-24.7-7.2s-0.7-104.2-2.1-142C58.2,333.3,69.8,215.6,69.8,215.6 M66.3,210.7l-0.4,4.5
			c-0.5,4.8-11.6,118.4-10,159.6C57.3,412,58,515.6,58,516.6v1.6l1.1,1.1c0.8,0.9,8.5,8.4,27.6,8.4c17.2,0,23.3-12,23.5-12.5
			l0.4-0.7v-0.8c0.1-1,5.9-98.8,4.7-137.4c-1.1-39.4,17.8-145.4,18-146.5l0.7-3.8l-3.7-0.9l-59.5-13.7L66.3,210.7L66.3,210.7z"/>
	</g>
	<path class="st2" d="M246.1,75.2c0-34.5-18-62.4-43.8-62.4c-23.8,0-44.2,21-47.2,51.7c-0.3,2.6,3.2,7,3.2,9.7
		c0,0.8-2.5,7.1-2.5,9.9c0,16.3,7.7,43.8,16.8,51l3.3,60.6h53.2l4.5-64.5c0.2-5.6,7.1-20.2,9.1-25.4
		C246.3,96.4,246.1,85.8,246.1,75.2z"/>
	<path class="st0" d="M69.8,216.2l1.4-12.1c0-3.2,4.3-5.7,6.4-7.2c1.3-0.9,8.2-4.8,10.1-5.6c13.6-6,30.5-12.3,31.7-12.8
		c14.2-6.7,23.3-15.3,34.3-18.4c4.8-1.4,7.2-6.1,14-6.9c0,0,16.3-1.8,34.4-1.8c12.9,0,34.4,3.5,34.4,3.5c6.8,1.7,7.1,3.5,12.8,5.7
		c11.1,4.2,22.9,7.1,35.7,12.3c18.5,7.4,30.1,16.1,43.7,22c1.9,0.8,11.6,5.2,13.2,5.6c2,0.6,6.2,5.6,6.2,9.2l1.6,12.1
		C271.2,278,88.1,393.7,88.1,328.1c0-46.7-11.8-66.8-5.3-93.9C74.9,231.8,76.6,221.1,69.8,216.2z"/>
	<g>
		<path class="st0" d="M328.4,995c-13.9,0-34.3-14-54.6-31.8c-4.1-3.6-6.9-5.8-8.9-7.5c-5.8-4.7-6-5-11.2-14.5
			c-3.5-6.4-3.4-15.2-3.3-27.4c0-1.9,0-3.9,0-6c0-7.7,9-12.1,24.6-12.1c11.6,0,26.4,2.7,31,7.6c1,1.1,2.8,4.7,6.9,12.8
			c3.6,7.1,10.4,16.9,15.5,26c11.1,19.9,18.2,42.5,9.6,49.5C335.4,993.9,332.2,995,328.4,995C328.5,995,328.4,995,328.4,995z"/>
		<path class="st1" d="M275,897.8c12.3,0,25.8,3,29.5,7c1.8,1.9,11.4,21,21.1,38.4c12,21.4,17.9,41.4,11.1,47
			c-2.4,2-5.2,2.9-8.4,2.9c-12.9,0-32.6-13.2-53.3-31.3c-15.2-13.3-12.7-8.6-19.7-21.4c-3.7-6.8-3.1-17.3-3.1-32.5
			C252.4,900.5,263.2,897.8,275,897.8 M275,893.8c-16.9,0-26.6,5.1-26.6,14.1c0,2.1,0,4.1,0,6c-0.1,12.5-0.1,21.6,3.6,28.4
			c5.3,9.8,5.7,10.2,11.7,15.1c2,1.6,4.8,3.9,8.9,7.4c9.8,8.6,20.1,17.4,29.4,23.7c10.5,7.2,19.6,8.6,26.5,8.6
			c4.2,0,7.9-1.3,10.9-3.8c4.6-3.8,4.5-9.4,1.8-20.6c-2.2-9.3-5.8-20.5-12-31.4c-5.1-9-10.9-18.8-14.5-25.9c-4.4-8.9-6-12-7.2-13.3
			C302.5,896.6,287.4,893.8,275,893.8L275,893.8z"/>
	</g>
	<polyline class="st0" points="112.8,302.2 326.8,234.7 294,497.8 110.1,497.8 	"/>
	<g>
		<path class="st0" d="M67.8,987c-6.3,0-11.4-1.6-15.1-4.6c-6.4-5.3,0.1-15.9,9-30.6c2.7-4.5,5.8-9.5,8.8-14.8
			c8.4-15,21.9-27.4,26.9-32.1c0.8-0.7,1.4-1.3,1.7-1.6c4.6-4.9,19.4-7.6,31-7.6c15.6,0,24.6,4.4,24.6,12.1c0,2.1,0,4.1,0,6
			c0.1,12.1,0.1,20-3.3,26.4c-4.2,7.6-8.1,9.3-13,11.4c-3.8,1.7-8.6,3.7-15.3,9.5C104.8,977.1,83.6,987,67.8,987z"/>
		<path class="st1" d="M130,897.8c11.9,0,22.6,2.8,22.6,10.1c0,15.2,0.7,24.6-3.1,31.4c-7,12.8-12.7,7.1-27.9,20.4
			C103,976,82.3,985.1,67.7,985.1c-5.7,0-10.4-1.4-13.8-4.2c-6.8-5.6,6.3-21.5,18.3-42.9c9.7-17.4,26.5-31.3,28.3-33.3
			C104.2,900.7,117.7,897.8,130,897.8 M130,893.8v4V893.8c-12.3,0-27.4,2.8-32.5,8.2c-0.2,0.2-0.9,0.8-1.5,1.4
			c-5.1,4.7-18.8,17.3-27.3,32.6c-2.9,5.2-6,10.3-8.7,14.7c-4.3,7-11,13.1-13.1,18.2c-1,2.5-2.2,10.3,3.5,15
			c4.1,3.4,10.6,5.1,17.4,5.1c16.3,0,38-10.1,56.6-26.4c6.4-5.6,10.8-7.5,14.7-9.2c5.1-2.2,9.5-4.1,14-12.3c3.7-6.8,3.7-15,3.6-27.4
			c0-1.9,0-3.9,0-6C156.7,898.9,146.9,893.8,130,893.8L130,893.8z"/>
	</g>
	<g>
		<polygon class="st0" points="167.6,434.2 189.7,166.9 206.3,171 229.8,433.1 196.8,460.4 		"/>
		<path class="st1" d="M191.5,169.4l12.9,3.2l23.3,259.7l-30.9,25.5l-27.2-24.3L191.5,169.4 M187.9,164.4l-0.4,4.7l-21.8,264l-0.2,2
			l1.5,1.3l27.2,24.3l2.6,2.3l2.7-2.2l30.9-25.5l1.6-1.3l-0.2-2.1l-23.3-259.7l-0.3-2.8l-2.8-0.7l-12.9-3.2L187.9,164.4L187.9,164.4
			z"/>
	</g>
	<g>
		<path class="st0" d="M278.2,912.5c-28.2,0-33.6-10.3-33.8-10.8c-0.1-0.2-0.2-0.4-0.2-0.7l-20.1-202.4l-22.9-130.3l-20.4,132.4
			l-20,200.3c0,0.2-0.1,0.5-0.2,0.7c-0.2,0.4-5.6,10.8-33.8,10.8c-26.9,0-30.5-10-30.9-11.1c-0.1-0.2-0.1-0.4-0.1-0.6l4.4-206.3
			l3.8-227.9c0-0.6,0.4-1.2,0.9-1.5c0.3-0.2,0.7-0.3,1.1-0.3c0.2,0,0.4,0,0.6,0.1c0.4,0.1,42.3,13.8,91.6,13.8
			c59.2,0,100.2-15.8,100.7-16c0.2-0.1,0.5-0.1,0.7-0.1c0.4,0,0.8,0.1,1.1,0.3c0.5,0.4,0.9,0.9,0.9,1.6l2.1,228l6.4,208.4
			c0,0.3,0,0.5-0.1,0.8C309.6,902.7,305,912.5,278.2,912.5z"/>
		<path class="st1" d="M299.7,464.5l2.1,228l6.4,208.3c0,0-3.8,9.7-30,9.7c-27.3,0-32-9.7-32-9.7l-20.1-202.5l-23.4-132.2l-3.1-0.1
			l-20.8,134.3l-20.1,200.4c0,0-4.7,9.7-32,9.7c-26.1,0-28.9-9.7-28.9-9.7l5.4-206.3l2.8-227.8c0,0,42,13.9,92.2,13.9
			C258.5,480.6,299.7,464.5,299.7,464.5 M299.7,460.5c-0.5,0-1,0.1-1.5,0.3c-0.2,0.1-10.4,4-27.7,7.9c-16,3.6-41.5,7.9-72.2,7.9
			c-49,0-90.5-13.5-90.9-13.7c-0.4-0.1-0.8-0.2-1.3-0.2c-0.8,0-1.6,0.2-2.3,0.7c-1,0.7-1.7,1.8-1.7,3.1l-2.8,227.8v0.1l-5.4,206.3
			c0,0.4,0,0.8,0.2,1.2c0.2,0.7,1.4,4.1,6.4,7.1c5.9,3.6,14.8,5.4,26.4,5.4c28.9,0,35-10.7,35.6-11.9c0.2-0.4,0.3-0.9,0.4-1.4
			l20-200.1l18.4-123.7L222.2,699l20.1,202.2c0,0.5,0.2,0.9,0.4,1.4c0.6,1.2,6.7,11.9,35.6,11.9c28,0,33.2-10.9,33.7-12.2
			c0.2-0.5,0.3-1.1,0.3-1.6l-6.4-208.3c0,0,0,0,0-0.1l-2.1-228c-0.1-1.3-0.7-2.5-1.8-3.2C301.2,460.7,300.4,460.5,299.7,460.5
			L299.7,460.5z"/>
	</g>
	<path class="st2" d="M225.2,542.8c44.8,3.9,86.9-14.8,86.9-14.8l10.4-229.1l-109.6,41.5C212.9,340.3,214.3,541.8,225.2,542.8z"/>
	<g>
		<path class="st0" d="M305,599.5c-0.8,0-1.6-0.1-2.4-0.3c-9.6-2.5-13.8-20-10.2-41.9c-2.7-1.9-5.2-6.2-1.9-18.7
			c0.2-0.9,0.4-1.8,0.7-2.7c1.9-7.7,4.1-16.3,9.9-16.3c1.5,0,3,0.6,4.6,1.8c5.1-7.2,11.2-11.1,17.4-11.1c5.2,0,9.1,1.6,11.6,4.8
			c6.3,8,2.5,24.3-1.7,41.6l-0.7,3C326.9,582.8,315.4,599.5,305,599.5z"/>
		<path class="st1" d="M323.1,512.4c19.2,0,12.8,23.4,7.3,46.9c-5.2,21.9-16.2,38.3-25.4,38.3c-0.6,0-1.3-0.1-1.9-0.2
			c-8.7-2.2-12.2-20-8.5-40.9c-1.2-0.7-6.1-2.1-2.1-17.2c1.9-7.1,3.8-17.5,8.7-17.5c1.1,0,2.3,0.5,3.8,1.7c0.6,0.5-0.7,2.5-0.1,3.3
			C310.5,516.6,317.1,512.4,323.1,512.4 M323.1,508.4c-6.4,0-12.6,3.6-17.9,10.4c-1.4-0.7-2.7-1.1-4.1-1.1c-7.4,0-9.9,9.9-11.9,17.9
			c-0.2,0.9-0.5,1.8-0.7,2.7c-2.6,10-2.1,16.5,1.6,20c-1.5,9.8-1.5,19.1,0,26.4c1.3,6.5,4.4,14.6,11.8,16.5c0.9,0.2,1.9,0.4,2.9,0.4
			c5.9,0,12-4.4,17.6-12.7c5-7.5,9.2-17.6,11.8-28.7l0.7-3c4.2-17.8,8.2-34.5,1.3-43.3C333.4,510.3,328.9,508.4,323.1,508.4
			L323.1,508.4z"/>
	</g>
	<g>
		<path class="st0" d="M313.9,530.8c-16,0-21.5-10.9-21.7-11.4l-0.3-0.6l0.1-0.6c0.2-1.1,18-106.5,19.1-144.8
			c1.1-39.6-21.9-145.7-22.1-146.8l-0.5-2.5l63.2,0.7l0.3,1.6c0.2,1.1,19.2,106.1,17.6,147.2c-1.4,37.5-26.9,143.9-28,148.4
			l-0.1,0.6l-0.4,0.4C340.7,523.4,332.4,530.8,313.9,530.8z"/>
		<path class="st1" d="M291,226.2l59.1,0.7c0,0,19.2,105.4,17.6,146.8c-1.5,37.7-28,148-28,148s-7.8,7.2-25.7,7.2
			c-14.9,0-19.9-10.3-19.9-10.3s18-106.2,19.1-145.1C314.3,333.2,291,226.2,291,226.2 M286,222.1l1.1,4.9
			c0.2,1.1,23.2,107,22.1,146.3c-1.1,38.1-18.9,143.5-19.1,144.5l-0.2,1.3l0.6,1.2c0.2,0.5,6.3,12.5,23.5,12.5
			c15.3,0,25.1-5.2,28.4-8.2l0.9-0.8l0.3-1.2c1.1-4.5,26.6-111.1,28.1-148.8c1.6-41.4-16.9-143.3-17.6-147.6l-0.6-3.2h-3.3
			l-59.1-0.7L286,222.1L286,222.1z"/>
	</g>
	<polygon class="st0" points="220.1,265 295.3,282 311,281.7 350,226.8 349.3,220 248.9,217.9 220.8,258.9 	"/>
	<g>
		<path class="st3" d="M213.4,295.8"/>
	</g>
	<g>
		<path class="st3" d="M236.4,155"/>
	</g>
	<path class="st4" d="M173.8,541.3c-44.8,3.9-76.4-8-76.4-8l11.3-132.8l1.6-40.5l-0.8-78.1l73.8,59.7
		C183.3,341.7,184.6,540.4,173.8,541.3z"/>
	<polygon class="st0" points="215.6,365.3 303.4,314.6 301.4,301.8 296.9,282 216.4,311 214.9,341.9 	"/>
	<g>
		<path class="st0" d="M197.8,185.6c-7.3,0-11.7-6-11.7-15.9c0-6.3,4.1-10.9,9.9-10.9h3.7c5.7,0,9.9,4.6,9.9,10.9
			C209.6,175.4,205.7,185.6,197.8,185.6z"/>
		<path class="st1" d="M199.7,160.8c4.9,0,7.9,4,7.9,8.9l0,0c0,4.9-3.4,13.9-9.7,13.9c-8.4,0-9.7-9-9.7-13.9l0,0
			c0-4.9,3-8.9,7.9-8.9H199.7 M199.7,156.8H196c-6.9,0-11.9,5.4-11.9,12.9c0,11.1,5.3,17.9,13.7,17.9c4.3,0,8.1-2.5,10.7-7.1
			c1.9-3.3,3-7.4,3-10.8C211.6,162.2,206.6,156.8,199.7,156.8L199.7,156.8z"/>
	</g>
	<polygon class="st0" points="96.8,263.9 177.6,278.1 181.9,321.4 181.4,359.2 112.8,311.1 111.6,282.9 102.4,283.4 	"/>
	<path class="st2" d="M234.9,152.3l13.1,4.4l19,37.4l-54.1,146.3c0,0,11.6-99.9,15-118.5C231,205.4,234.9,152.3,234.9,152.3z"/>
	<path class="st2" d="M168.6,149.6c0,0,13.8,7.5,29.1,7.5c13.9,0,37.7-6.1,37.7-6.1l-1.2,13.3l-20.6,16.2c0,0-11.9-17.4-15.7-17.4
		c-4.2,0-14.9,17.2-14.9,17.2L168.7,166L168.6,149.6z"/>
	<path class="st2" d="M168.2,151.6l-12.5,4.4l-18.6,37.8l46.2,147.9c0.5,6-6.7-102.9-10.2-121.9
		C170.1,203.3,168.2,151.6,168.2,151.6z"/>
	<path class="st2" d="M157.7,51.1c0,0,5.8-24.7,26.4-23.5c12.7,0.8,17,8.5,27.1,7.2c9.6-1.3,16.7,5.4,16.7,5.4
		c1.2-0.1-1.6,8.4-1.7,13.3c-0.1,3.2,3.3,6.4,3.2,9.7c-0.3,5.9,0.5,11,0.9,11h1.3c0.9,0,4.4-4.7,7-4.7c3.2,0.1,2.9,24.3,5.2,24.3
		c2.1,0,8.6-9.1,9.8-13.8c2.7-11.2,1.6-26.9,1.6-29.6c0-7.7-2.1-22.7-7.6-27.9c-6.4-6.1-26.4-17.2-37.9-17.2c-5.5,0-10.5,2-19.9,2
		c-4.8,0-10.1,5.8-12.2,6.3c-5.7,1.5-17.2,9.7-21.3,18.1C153.7,37.2,153.4,48.8,157.7,51.1z"/>
</g>
</svg>
